<svg xmlns="http://www.w3.org/2000/svg" viewBox="0 0 256 256">
  <defs>
    <radialGradient id="bg" cx="50%" cy="50%" r="50%">
      <stop offset="0%" style="stop-color:#0f0f2e"/>
      <stop offset="100%" style="stop-color:#07071a"/>
    </radialGradient>
    <radialGradient id="glow" cx="50%" cy="40%" r="50%">
      <stop offset="0%" style="stop-color:#6366f1;stop-opacity:0.2"/>
      <stop offset="100%" style="stop-color:#6366f1;stop-opacity:0"/>
    </radialGradient>
  </defs>
  <rect width="256" height="256" rx="40" fill="url(#bg)"/>
  <rect width="256" height="256" rx="40" fill="url(#glow)"/>
  <rect x="0" y="0" width="256" height="5" rx="2.5" fill="#6366f1"/>
  <path d="M16 16 L16 44 M16 16 L44 16" fill="none" stroke="#6366f1" stroke-width="3.5" stroke-linecap="round"/>
  <path d="M240 16 L240 44 M240 16 L212 16" fill="none" stroke="#6366f1" stroke-width="3.5" stroke-linecap="round"/>
  <path d="M16 240 L16 212 M16 240 L44 240" fill="none" stroke="#6366f1" stroke-width="3.5" stroke-linecap="round"/>
  <path d="M240 240 L240 212 M240 240 L212 240" fill="none" stroke="#6366f1" stroke-width="3.5" stroke-linecap="round"/>
  <circle cx="128" cy="112" r="74" fill="none" stroke="#2d2b6b" stroke-width="1" stroke-dasharray="5 4"/>
  <circle cx="128" cy="112" r="54" fill="#0f0f2e"/>
  <circle cx="150" cy="98"  r="44" fill="#07071a"/>
  <circle cx="88"  cy="66"  r="3.5" fill="#a5b4fc"/>
  <circle cx="174" cy="60"  r="2.5" fill="#a5b4fc"/>
  <circle cx="188" cy="88"  r="2"   fill="#6366f1"/>
  <circle cx="76"  cy="94"  r="2"   fill="#a5b4fc"/>
  <circle cx="180" cy="146" r="3"   fill="#a5b4fc"/>
  <circle cx="74"  cy="146" r="2"   fill="#a5b4fc"/>
  <circle cx="104" cy="50"  r="1.5" fill="#6366f1"/>
  <circle cx="160" cy="48"  r="1.5" fill="#a5b4fc"/>
  <circle cx="200" cy="110" r="1.5" fill="#a5b4fc"/>
  <line x1="128" y1="40"  x2="128" y2="76"  stroke="#6366f1" stroke-width="2" stroke-linecap="round"/>
  <line x1="128" y1="148" x2="128" y2="184" stroke="#6366f1" stroke-width="2" stroke-linecap="round"/>
  <line x1="56"  y1="112" x2="92"  y2="112" stroke="#6366f1" stroke-width="2" stroke-linecap="round"/>
  <line x1="164" y1="112" x2="200" y2="112" stroke="#6366f1" stroke-width="2" stroke-linecap="round"/>
  <circle cx="128" cy="112" r="5"   fill="#6366f1"/>
  <circle cx="128" cy="112" r="2.5" fill="#a5b4fc"/>
  <rect x="52" y="192" width="152" height="42" rx="8" fill="#0f0f2e" stroke="#2d2b6b" stroke-width="0.5"/>
  <rect x="52" y="192" width="152" height="3"  rx="1.5" fill="#6366f1"/>
  <text x="128" y="222" font-family="monospace" font-size="20" font-weight="700"
        fill="#e0e7ff" text-anchor="middle" letter-spacing="4">Night<tspan fill="#6366f1">X</tspan></text>
  <rect x="0" y="251" width="256" height="5" rx="2.5" fill="#6366f1"/>
</svg>
